<svg width="377.8" height="71.401" viewBox="0 0 377.8 71.401" xmlns="http://www.w3.org/2000/svg"><g id="svgGroup" stroke-linecap="round" fill-rule="evenodd" font-size="9pt" stroke="#000" stroke-width="0.25mm" fill="#00000000" style="stroke:#000;stroke-width:0.25mm;fill:#00000000"><path d="M 49.7 2.3 L 49.7 15.4 A 41.576 41.576 0 0 0 45.466 14.201 A 50.625 50.625 0 0 0 42.7 13.65 A 45.191 45.191 0 0 0 37.716 13.092 A 55.186 55.186 0 0 0 34.5 13 A 32.433 32.433 0 0 0 30.896 13.19 Q 29.038 13.398 27.438 13.834 A 18.07 18.07 0 0 0 26.4 14.15 Q 23 15.3 20.8 17.95 Q 18.807 20.352 17.757 24.109 A 24.903 24.903 0 0 0 17.55 24.9 Q 16.5 29.2 16.5 35.6 A 72.733 72.733 0 0 0 16.624 39.986 Q 16.75 42.063 17.004 43.842 A 31.143 31.143 0 0 0 17.55 46.75 A 21.62 21.62 0 0 0 18.5 49.76 Q 19.15 51.375 20.023 52.642 A 11.716 11.716 0 0 0 20.8 53.65 Q 23 56.2 26.35 57.2 A 22.296 22.296 0 0 0 29.643 57.901 Q 31.785 58.2 34.3 58.2 Q 38.6 58.2 42.55 57.55 A 47.037 47.037 0 0 0 50 55.672 A 51.619 51.619 0 0 0 50.5 55.5 L 50.5 68.5 Q 47.836 69.617 44.212 70.365 A 52.179 52.179 0 0 1 43 70.6 Q 38.6 71.4 33.6 71.4 Q 26 71.4 19.8 69.9 Q 13.6 68.4 9.2 64.45 A 22.069 22.069 0 0 1 4.883 59.057 Q 3.45 56.591 2.4 53.55 Q 0.657 48.501 0.18 41.366 A 85.105 85.105 0 0 1 0 35.7 Q 0 25.7 2.35 18.85 Q 4.7 12 9.1 7.8 A 25.298 25.298 0 0 1 19.554 1.829 A 29.344 29.344 0 0 1 19.65 1.8 A 43.685 43.685 0 0 1 27.059 0.345 A 57.818 57.818 0 0 1 33.5 0 A 69.025 69.025 0 0 1 40.105 0.297 Q 43.368 0.612 46.139 1.259 A 32.156 32.156 0 0 1 49.7 2.3 Z M 338.6 70.4 L 332.7 53.2 L 304.5 53.2 L 298.5 70.4 L 282.7 70.4 L 308.6 1 L 329 1 L 354.7 70.4 L 338.6 70.4 Z M 226.8 57.2 L 254.4 57.2 L 254.4 70.4 L 211.6 70.4 L 211.6 1 L 226.8 1 L 226.8 57.2 Z M 91.8 71.4 Q 84.3 71.4 78.4 69.8 A 22.439 22.439 0 0 1 71.475 66.645 A 20.631 20.631 0 0 1 68.5 64.15 Q 64.735 60.338 62.653 53.999 A 38.273 38.273 0 0 1 62.4 53.2 A 42.35 42.35 0 0 1 61.121 47.505 Q 60.659 44.591 60.457 41.221 A 92.485 92.485 0 0 1 60.3 35.7 Q 60.3 28.071 61.388 22.359 A 39.986 39.986 0 0 1 62.4 18.2 A 32.853 32.853 0 0 1 64.42 13.064 Q 65.859 10.188 67.774 8.026 A 19.673 19.673 0 0 1 68.5 7.25 A 21.27 21.27 0 0 1 77.311 1.922 A 25.427 25.427 0 0 1 78.4 1.6 Q 84.3 0 91.8 0 A 61.683 61.683 0 0 1 98.552 0.352 Q 102.166 0.75 105.3 1.6 A 22.439 22.439 0 0 1 112.226 4.755 A 20.631 20.631 0 0 1 115.2 7.25 Q 118.966 11.063 121.003 17.401 A 37.642 37.642 0 0 1 121.25 18.2 A 43.232 43.232 0 0 1 122.5 23.896 Q 123.3 29.075 123.3 35.7 A 90.384 90.384 0 0 1 123.036 42.841 Q 122.564 48.78 121.25 53.2 A 32.302 32.302 0 0 1 119.263 58.336 Q 117.813 61.266 115.855 63.454 A 19.414 19.414 0 0 1 115.2 64.15 A 21.27 21.27 0 0 1 106.39 69.479 A 25.427 25.427 0 0 1 105.3 69.8 Q 99.585 71.35 92.274 71.399 A 71.451 71.451 0 0 1 91.8 71.4 Z M 166.5 71.4 Q 159 71.4 153.1 69.8 A 22.439 22.439 0 0 1 146.175 66.645 A 20.631 20.631 0 0 1 143.2 64.15 Q 139.435 60.338 137.353 53.999 A 38.273 38.273 0 0 1 137.1 53.2 A 42.35 42.35 0 0 1 135.821 47.505 Q 135.359 44.591 135.157 41.221 A 92.485 92.485 0 0 1 135 35.7 Q 135 28.071 136.088 22.359 A 39.986 39.986 0 0 1 137.1 18.2 A 32.853 32.853 0 0 1 139.12 13.064 Q 140.559 10.188 142.474 8.026 A 19.673 19.673 0 0 1 143.2 7.25 A 21.27 21.27 0 0 1 152.011 1.922 A 25.427 25.427 0 0 1 153.1 1.6 Q 159 0 166.5 0 A 61.683 61.683 0 0 1 173.252 0.352 Q 176.866 0.75 180 1.6 A 22.439 22.439 0 0 1 186.926 4.755 A 20.631 20.631 0 0 1 189.9 7.25 Q 193.666 11.063 195.703 17.401 A 37.642 37.642 0 0 1 195.95 18.2 A 43.232 43.232 0 0 1 197.2 23.896 Q 198 29.075 198 35.7 A 90.384 90.384 0 0 1 197.736 42.841 Q 197.264 48.78 195.95 53.2 A 32.302 32.302 0 0 1 193.963 58.336 Q 192.513 61.266 190.555 63.454 A 19.414 19.414 0 0 1 189.9 64.15 A 21.27 21.27 0 0 1 181.09 69.479 A 25.427 25.427 0 0 1 180 69.8 Q 174.285 71.35 166.974 71.399 A 71.451 71.451 0 0 1 166.5 71.4 Z M 362.6 70.4 L 362.6 1 L 377.8 1 L 377.8 70.4 L 362.6 70.4 Z M 91.8 58.7 A 31.71 31.71 0 0 0 94.894 58.559 Q 97.649 58.288 99.65 57.5 Q 102.7 56.3 104.4 53.6 Q 105.782 51.406 106.47 48.088 A 27.899 27.899 0 0 0 106.75 46.5 A 53.247 53.247 0 0 0 107.146 42.919 Q 107.301 40.958 107.362 38.706 A 112.141 112.141 0 0 0 107.4 35.7 Q 107.4 30.877 107.019 27.138 A 50.752 50.752 0 0 0 106.75 24.95 Q 106.1 20.5 104.4 17.7 Q 102.7 14.9 99.65 13.65 Q 97.317 12.694 93.96 12.469 A 32.37 32.37 0 0 0 91.8 12.4 A 30.276 30.276 0 0 0 88.713 12.548 Q 87.175 12.706 85.88 13.033 A 13.466 13.466 0 0 0 84 13.65 Q 81 14.9 79.3 17.7 Q 77.6 20.5 76.95 24.95 Q 76.3 29.4 76.3 35.7 A 105.126 105.126 0 0 0 76.392 40.219 Q 76.544 43.75 76.95 46.5 Q 77.6 50.9 79.3 53.6 Q 81 56.3 84 57.5 A 14.604 14.604 0 0 0 86.503 58.232 Q 87.795 58.495 89.31 58.611 A 32.844 32.844 0 0 0 91.8 58.7 Z M 166.5 58.7 A 31.71 31.71 0 0 0 169.594 58.559 Q 172.349 58.288 174.35 57.5 Q 177.4 56.3 179.1 53.6 Q 180.482 51.406 181.17 48.088 A 27.899 27.899 0 0 0 181.45 46.5 A 53.247 53.247 0 0 0 181.846 42.919 Q 182.001 40.958 182.062 38.706 A 112.141 112.141 0 0 0 182.1 35.7 Q 182.1 30.877 181.719 27.138 A 50.752 50.752 0 0 0 181.45 24.95 Q 180.8 20.5 179.1 17.7 Q 177.4 14.9 174.35 13.65 Q 172.017 12.694 168.66 12.469 A 32.37 32.37 0 0 0 166.5 12.4 A 30.276 30.276 0 0 0 163.413 12.548 Q 161.875 12.706 160.58 13.033 A 13.466 13.466 0 0 0 158.7 13.65 Q 155.7 14.9 154 17.7 Q 152.3 20.5 151.65 24.95 Q 151 29.4 151 35.7 A 105.126 105.126 0 0 0 151.092 40.219 Q 151.244 43.75 151.65 46.5 Q 152.3 50.9 154 53.6 Q 155.7 56.3 158.7 57.5 A 14.604 14.604 0 0 0 161.203 58.232 Q 162.495 58.495 164.01 58.611 A 32.844 32.844 0 0 0 166.5 58.7 Z M 308.9 40.6 L 328.3 40.6 L 319.3 14.3 L 318.1 14.3 L 308.9 40.6 Z" vector-effect="non-scaling-stroke"/></g></svg>